2.6Hz3min_grf.mot
version=1
nRows=12
nColumns 19
inDegrees=yes
endheader
time	1_ground_force_vx	1_ground_force_vy	1_ground_force_vz	1_ground_force_px	1_ground_force_py	1_ground_force_pz	1_ground_torque_x	1_ground_torque_y	1_ground_torque_z	2_ground_force_vx	2_ground_force_vy	2_ground_force_vz	2_ground_force_px	2_ground_force_py	2_ground_force_pz	2_ground_torque_x	2_ground_torque_y	2_ground_torque_z
            3.751500	            8.937559	          907.888852	          -96.327282	           -0.300605	            0.006297	           -0.425535	            0.019880	            2.019486	           -0.214268	            1.226365	          931.620209	          107.316120	           -0.262142	            0.005832	           -0.780245	           -0.001320	           -1.002721	           -0.115506
            3.752000	            8.574636	          900.673829	          -95.348468	           -0.300327	            0.006297	           -0.425479	            0.019126	            2.008950	           -0.212674	            1.103685	          926.469543	          105.608370	           -0.261746	            0.005833	           -0.780292	           -0.001133	           -0.951349	           -0.108444
            3.752500	            7.937890	          894.177456	          -93.815593	           -0.300280	            0.006297	           -0.425553	            0.017625	            1.985363	           -0.208301	            1.369178	          917.636625	          104.075032	           -0.261874	            0.005832	           -0.779882	           -0.001577	           -1.057250	           -0.119909
            3.753000	            7.622075	          888.762285	          -92.187173	           -0.300079	            0.006296	           -0.425249	            0.014869	            1.733776	           -0.179836	            1.718669	          911.564163	          103.161584	           -0.261592	            0.005832	           -0.779812	           -0.002049	           -1.086879	           -0.123002
            3.753500	            7.351554	          881.365804	          -90.934217	           -0.300073	            0.006297	           -0.425446	            0.013211	            1.583797	           -0.163407	            1.602114	          904.754999	          101.776410	           -0.261444	            0.005833	           -0.779760	           -0.001849	           -1.043994	           -0.117440
            3.754000	            7.583679	          874.152469	          -90.323729	           -0.299749	            0.006297	           -0.425490	            0.013848	            1.596240	           -0.164935	            0.831531	          897.391987	          100.107990	           -0.261307	            0.005832	           -0.779547	           -0.000959	           -1.035334	           -0.115496
            3.754500	            7.403607	          867.298860	          -89.527232	           -0.299623	            0.006297	           -0.425412	            0.014207	            1.664297	           -0.171798	            0.530317	          889.844913	           98.907980	           -0.261171	            0.005832	           -0.779383	           -0.000624	           -1.046753	           -0.116349
            3.755000	            7.590701	          860.624709	          -88.547464	           -0.299405	            0.006296	           -0.425264	            0.016299	            1.847982	           -0.190134	            0.037592	          883.403011	           97.430438	           -0.260896	            0.005833	           -0.779305	           -0.000043	           -1.017234	           -0.112191
            3.755500	            7.273816	          853.589598	          -87.476271	           -0.299193	            0.006297	           -0.425315	            0.015841	            1.858936	           -0.190505	           -0.214463	          875.122390	           95.430010	           -0.260791	            0.005833	           -0.779176	            0.000227	           -0.926886	           -0.101075
            3.756000	            7.095535	          845.651582	          -86.042437	           -0.299300	            0.006298	           -0.425620	            0.014780	            1.761468	           -0.179224	           -0.192483	          868.866383	           93.999827	           -0.260648	            0.005833	           -0.779022	            0.000210	           -0.949777	           -0.102753
            3.756500	            6.686685	          839.517886	          -85.013005	           -0.298865	            0.006297	           -0.425476	            0.012379	            1.554253	           -0.157390	            0.354919	          859.849107	           92.794201	           -0.260482	            0.005832	           -0.778646	           -0.000404	           -0.978318	           -0.105579
            3.757000	            6.645817	          832.841651	          -83.528249	           -0.298670	            0.006297	           -0.425279	            0.010961	            1.373617	           -0.137764	            0.472216	          853.222814	           92.019658	           -0.260344	            0.005833	           -0.778703	           -0.000557	           -1.006553	           -0.108556
